<svg id="Capa_1" data-name="Capa 1" xmlns="http://www.w3.org/2000/svg" viewBox="0 0 223 103.08"><defs><style>.cls-1{fill:none;stroke:#95989a;stroke-linecap:round;stroke-miterlimit:10;stroke-width:3px;}</style></defs><title>signature</title><path class="cls-1" d="M1.5,61C3,69,28,72.85,38.61,7c0,0,1.1-11.76-8.82,0s-16,56.4-5.33,58.24C34.77,67,57.08,38.67,58.56,2.47A.93.93,0,0,0,56.82,2C50,14.51,26,66.43,21.71,93.31"/><path class="cls-1" d="M31.81,62.26c-1.87-.35,28.29,18.37,38.95-30.87,0,0,3.31-17.64-8.27-.55-4.28,6.31-12.38,30.09-1.65,34,10.47,3.8,29-19.67,29.4-37.48,0,0,.37-10.66-8.64,2.39C77.85,35.18,65,63.16,77.38,65.57c5.08,1.81,36.93-20.76,29.76-42.26.22-1.43-6.72.4-19,35.4L73.77,99.49s5.07-2.33,5.44,2.08"/><path class="cls-1" d="M87.3,62.26s10.65,6.69,19.29.92c12.63-8.44,24.23-34.45,21.86-39.13-4.18-8.26-36,39.43-8.45,41.15,18.63,1.16,36.74-55.85,21.5-39.5-27.27,29.24-7.39,67.47,22.6,9,4.78-9.19,1.59-20-7.53-5.33-18.68,30-3.84,58.39,20,14.88,24.15-44,20.23-53.2,7.72-30.87-12,21.39-35.18,66.25-3.67,48.87C206.44,48,208.74,2.92,191.29,34c-16.56,29.46-9,34.75,5.88,30.13,18.34-5.7,32-49.71,19.47-38.95-17.26,14.79-18.4,54.61,2.2,34.91"/></svg>