<?xml version="1.0" encoding="utf-8"?>
<!-- Generator: Adobe Illustrator 21.0.0, SVG Export Plug-In . SVG Version: 6.00 Build 0)  -->
<svg version="1.1" id="Capa_1" xmlns="http://www.w3.org/2000/svg" xmlns:xlink="http://www.w3.org/1999/xlink" x="0px" y="0px"
	 viewBox="0 0 604.7 275.6" style="enable-background:new 0 0 604.7 275.6;" xml:space="preserve">
<style type="text/css">
	.st0{fill:none;stroke:#3D3D3D;stroke-width:6;stroke-miterlimit:10;}
</style>
<g>
	<g>
		<path class="st0" d="M3,164.9c4,21.9,72,32.3,101-147c0,0,3-32-24,0S36.5,171.4,65.5,176.4c28,4.8,88.8-72.2,92.8-170.7
			c0.1-2.7-3.5-3.7-4.8-1.3c-18.6,34.1-84,175.4-95.5,248.5"/>
		<path class="st0" d="M85.5,168.4c-5.1-1,77,50,106-84c0,0,9-48-22.5-1.5c-11.6,17.2-33.7,81.9-4.5,92.5c28.5,10.4,79-53.5,80-102
			c0,0,1-29-23.5,6.5c-10.2,14.8-45.1,90.9-11.5,97.5c13.8,4.9,100.5-56.5,81-115c0.6-3.9-18.3,1.1-51.8,96.3l-39,111
			c0,0,13.8-6.3,14.8,5.7"/>
		<path class="st0" d="M236.5,168.4c0,0,29,18.2,52.5,2.5c34.4-23,65.9-93.8,59.5-106.5c-11.4-22.5-98.1,107.3-23,112
			c50.7,3.2,100-152,58.5-107.5c-74.2,79.6-20.1,183.6,61.5,24.5c13-25,4.3-54.4-20.5-14.5c-50.8,81.7-10.4,158.9,54.5,40.5
			c65.7-119.8,55.1-144.8,21-84c-32.6,58.2-95.8,180.3-10,133c70.2-38.7,76.5-161.5,29-77c-45.1,80.2-24.5,94.6,16,82
			c49.9-15.5,87.2-135.3,53-106c-47,40.2-50.1,148.6,6,95"/>
	</g>
</g>
<g>
</g>
<g>
</g>
<g>
</g>
<g>
</g>
<g>
</g>
<g>
</g>
<g>
</g>
<g>
</g>
<g>
</g>
<g>
</g>
<g>
</g>
<g>
</g>
<g>
</g>
<g>
</g>
<g>
</g>
</svg>
