<?xml version="1.0" encoding="UTF-8"?>
<svg width="210px" height="32px" viewBox="0 0 210 32" version="1.1" xmlns="http://www.w3.org/2000/svg" xmlns:xlink="http://www.w3.org/1999/xlink">
    <!-- Generator: Sketch 46.2 (44496) - http://www.bohemiancoding.com/sketch -->
    <title>Technologies</title>
    <desc>Created with Sketch.</desc>
    <defs>
        <polygon id="path-1" points="32.6153846 31.999873 32.6153846 0.0308521739 3.5451505e-05 0.0308521739 3.5451505e-05 31.999873"></polygon>
        <polygon id="path-3" points="3.11712539e-05 0.168743169 37.6855956 0.168743169 37.6855956 31.9999475 3.11712539e-05 31.9999475"></polygon>
        <polygon id="path-5" points="21.9023089 23.4375989 21.9023089 0.252724544 0.256925524 0.252724544 0.256925524 23.4375989 21.9023089 23.4375989"></polygon>
        <polygon id="path-7" points="0.0846569106 5.72357724 4.66325854 5.72357724 4.66325854 0.247414805 0.0846569106 0.247414805"></polygon>
        <polygon id="path-9" points="2.15051959 0.0744065041 0.0727414634 0.0744065041 0.0727414634 1.43786204 2.15051959 1.43786204 2.15051959 0.0744065041"></polygon>
        <polygon id="path-11" points="0.000283902564 0.25838806 28.5001771 0.25838806 28.5001771 32 0.000283902564 32"></polygon>
        <polygon id="path-13" points="0.122392724 0.130520853 0.460714368 0.130520853 0.460714368 0.438028545 0.122392724 0.438028545 0.122392724 0.130520853"></polygon>
        <polygon id="path-15" points="0.316160544 0.269442076 0.00846823651 0.269442076 0.00846823651 0.250365153 0.316160544 0.250365153 0.316160544 0.269442076"></polygon>
        <polygon id="path-17" points="0.308866728 0.130520853 0.00117442076 0.130520853 0.00117442076 0.438151622 0.308866728 0.438151622 0.308866728 0.130520853"></polygon>
        <polygon id="path-19" points="0.187322353 0.130520853 0.495014661 0.130520853 0.495014661 0.438028545 0.187322353 0.438028545 0.187322353 0.130520853"></polygon>
        <polygon id="path-21" points="0.534782576 0.269442076 0.227090269 0.269442076 0.227090269 0.250365153 0.534782576 0.250365153 0.534782576 0.269442076"></polygon>
        <polygon id="path-23" points="0.00108140951 0.269462465 0.308773717 0.269462465 0.308773717 0.250231696 0.00108140951 0.250231696"></polygon>
    </defs>
    <g id="Page-1" stroke="none" stroke-width="1" fill="none" fill-rule="evenodd">
        <g id="Desktop-HD-Copy-3" transform="translate(-708.000000, -556.000000)">
            <g id="Technologies" transform="translate(708.000000, 556.000000)">
                <g id="Swift-logo">
                    <g id="Group-3">
                        <mask id="mask-2" fill="white">
                            <use xlink:href="#path-1"></use>
                        </mask>
                        <g id="Clip-2"></g>
                        <path d="M3.43954047,18.641287 C3.41188829,18.6096348 3.37218261,18.5543304 3.33921271,18.585287 C3.28780803,18.6343304 3.36225619,18.6607652 3.39026288,18.6934609 C3.45336656,18.7960696 3.50973445,18.9032 3.58063746,19.0002435 C6.44972776,22.9150261 10.2394936,25.3717217 15.1679619,25.9873739 C17.0943967,26.2280696 18.975099,25.9946783 20.7717813,25.2426783 C21.5162629,24.9310261 22.2185572,24.5313739 23.0144435,24.3303304 C24.993701,23.8308522 26.4631659,24.381113 27.3955405,26.0037217 C27.444109,26.0882435 27.4657344,26.2381565 27.5770522,26.2259826 C27.7167311,26.2106783 27.7241759,26.0541565 27.7525371,25.9400696 C27.8950522,25.3616348 27.8592462,24.7790261 27.7762896,24.1992 C27.550109,22.6204174 26.8942562,21.221113 25.9019686,19.9685913 C25.8016408,19.8419826 25.7885237,19.7296348 25.8296475,19.5859826 C26.4454401,17.4343304 26.2763365,15.3094609 25.5602161,13.2165913 C24.5682829,10.3153739 22.7733732,7.9592 20.3899686,6.01693913 C19.7954468,5.53241739 19.1828448,5.06772174 18.4968582,4.70806957 C18.4844502,4.69798261 18.4720421,4.68789565 18.4596341,4.67815652 C18.4585706,4.68685217 18.457507,4.69554783 18.456798,4.70424348 C18.4713331,4.70389565 18.4858682,4.70354783 18.5004033,4.70285217 C18.4879953,4.87850435 18.632992,4.9752 18.715594,5.09902609 C20.5271659,7.81346087 21.5747579,10.7285913 21.1613933,14.0273739 C21.0692194,14.7633739 20.8795538,15.4778087 20.5860154,16.1845913 C19.1321492,15.3223304 17.7793197,14.3595478 16.4463431,13.369287 C15.1119485,12.3783304 13.8158415,11.3404174 12.5527043,10.2635478 C11.2998482,9.19502609 10.0923699,8.0778087 8.86397525,6.97833043 C10.8301157,9.81728696 12.9937211,12.4976348 15.3282027,15.0555478 C11.9471926,12.9470261 8.77889164,10.5654609 5.74459732,8.00476522 C5.74459732,8.05693913 5.75984147,8.08998261 5.77898528,8.12093913 C6.16753378,8.75015652 6.67059064,9.29311304 7.13252375,9.86806957 C8.5612194,11.6465043 10.0303298,13.3905043 11.6093398,15.0423304 C13.3064033,16.8169391 15.0935137,18.497287 17.0635538,19.9821565 C17.2383298,20.1139826 17.2035873,20.1685913 17.0351926,20.261113 C16.6721692,20.461113 16.3027645,20.6468522 15.9159886,20.7964174 C13.5680355,21.7056348 11.1757679,21.7038957 8.76506555,21.0965913 C6.83437659,20.6099826 5.05577458,19.7915478 3.43954047,18.641287 L3.43954047,18.641287 Z M8.76825619,6.90493913 C8.79236321,6.92685217 8.8132796,6.97033043 8.8487311,6.92233043 C8.8533398,6.91641739 8.82285151,6.88511304 8.80831639,6.86528696 C8.77995518,6.82424348 8.74556722,6.81067826 8.70054381,6.8405913 C8.72287826,6.86215652 8.74556722,6.88372174 8.76825619,6.90493913 L8.76825619,6.90493913 Z M24.8522495,0.0308521739 C25.1486241,0.136243478 25.4620154,0.116069565 25.7665438,0.133808696 C29.1734334,0.329982609 31.8021625,2.62111304 32.4034201,5.91676522 C32.5441625,6.68685217 32.6079753,7.46076522 32.6086843,8.24024348 C32.6118749,13.4346783 32.62641,18.629113 32.5994669,23.8235478 C32.5923766,25.1745043 32.4860221,26.5306783 31.9060355,27.7957217 C30.8612796,30.0739826 29.0334,31.3529391 26.5709385,31.8242435 C25.8441826,31.9633739 25.1096274,31.9988522 24.3711726,31.9988522 C18.9917612,31.9967652 13.6119953,32.0061565 8.23293846,31.9912 C7.01411572,31.9880696 5.79422943,31.9004174 4.6392194,31.4565913 C2.16931304,30.5073739 0.755861538,28.7004174 0.228343144,26.1859826 C0.136523746,25.7470261 0.0751926421,25.3018087 3.5451505e-05,24.8597217 L3.5451505e-05,7.43502609 C0.0769652174,7.39606957 0.0510856187,7.32337391 0.0567578595,7.26285217 C0.0954,6.85693913 0.110998662,6.44754783 0.172684281,6.04511304 C0.432543813,4.33972174 1.12420268,2.85763478 2.50326622,1.7285913 C3.43493177,0.965808696 4.46657057,0.415895652 5.67440334,0.219026087 C6.10762074,0.148069565 6.54402876,0.0931130435 6.97901873,0.0308521739 L24.8522495,0.0308521739 Z" id="Fill-1" fill="#363636" mask="url(#mask-2)"></path>
                    </g>
                </g>
                <g id="Vue-logo" transform="translate(43.000000, 0.000000)">
                    <g id="Group-3">
                        <mask id="mask-4" fill="white">
                            <use xlink:href="#path-3"></use>
                        </mask>
                        <g id="Clip-2"></g>
                        <path d="M0.00149956442,0.198767213 C0.00810478938,0.189674317 -0.013674601,0.167991257 0.0166737299,0.169040437 C0.0568406384,0.170089617 0.097007547,0.169215301 0.137174456,0.169215301 L7.47754311,0.169215301 C7.48093498,0.215554098 7.50860552,0.251575956 7.5312775,0.289696175 C7.77584935,0.702198907 8.02059971,1.11470164 8.26535007,1.52720437 C9.48231814,3.57660328 10.6994647,5.62600219 11.9164328,7.67522623 C12.9491687,9.41424262 13.9822615,11.1530842 15.0151759,12.8919257 C16.232144,14.9411497 17.448755,16.9907235 18.6671512,19.039423 C18.7269553,19.1403191 18.7789045,19.2469858 18.8690569,19.354177 C18.9227913,19.264647 18.9708131,19.1856087 19.0177637,19.105871 C19.6025939,18.1133464 20.1870671,17.1204721 20.7718972,16.1277727 C21.3515504,15.1436415 21.931739,14.1596852 22.5113922,13.1755541 C23.1360322,12.1146579 23.7604938,11.0535869 24.3851338,9.99269071 C25.0074531,8.93599126 25.6301295,7.87964153 26.2524488,6.82294208 C26.9172557,5.69384918 27.5817057,4.56458142 28.2468697,3.43548852 C28.8615126,2.39172896 29.4766911,1.34814426 30.0911556,0.304034973 C30.1157913,0.26206776 30.1488174,0.22237377 30.1464967,0.169215301 L37.5470264,0.169215301 C37.5823733,0.169215301 37.6175417,0.170789071 37.6525315,0.168865574 C37.712157,0.165718033 37.6703835,0.209783607 37.6827013,0.228319126 C37.634501,0.260843716 37.6230758,0.316974863 37.5962978,0.362439344 C36.5321425,2.15776175 35.4695939,3.95378361 34.4066882,5.74980546 C32.2253573,9.43522623 30.0438479,13.120647 27.8626955,16.8062426 C25.9030859,20.117106 23.9432978,23.4281443 21.9840453,26.7391825 C20.9464894,28.4927126 19.9096476,30.2464175 18.8722702,31.9999475 L18.8421004,31.9999475 C18.8233559,31.9270295 18.7764052,31.8681005 18.7389161,31.8048 C17.1854386,29.1785268 15.631247,26.5526033 14.077234,23.9268546 C12.5080467,21.2754011 10.9388595,18.6239475 9.3698508,15.972494 C7.42023832,12.6784175 5.47080435,9.38434098 3.52119187,6.09026448 C2.38277242,4.16659235 1.24417446,2.24292022 0.105040929,0.319597814 C0.0780844701,0.27395847 0.0616606675,0.217827322 0.00149956442,0.198767213" id="Fill-1" fill="#666666" mask="url(#mask-4)"></path>
                        <path d="M30.1298313,0.359550562 C30.1321635,0.412352197 30.0989741,0.451779735 30.0740371,0.493465236 C29.4567132,1.53056578 28.8384923,2.56697157 28.2206302,3.60389843 C27.552356,4.72541212 26.88462,5.8470995 26.2165253,6.96861318 C25.5911283,8.01821938 24.9653724,9.0674782 24.3399754,10.1170844 C23.7122462,11.1708591 23.084517,12.2248076 22.4567877,13.2785823 C21.8742679,14.2561073 21.2912099,15.2334587 20.7086901,16.2109837 C20.121147,17.1970195 19.5337833,18.183229 18.9460609,19.1690911 C18.8986986,19.2482936 18.8506187,19.3268013 18.7966186,19.4157303 C18.7058409,19.3092586 18.6536348,19.203308 18.593535,19.1030891 C17.3692926,17.0681418 16.1466647,15.0323261 14.9234987,12.9968578 C13.8856554,11.2695148 12.8474534,9.54251923 11.8096101,7.81517625 C10.5864441,5.77970794 9.36345745,3.74406593 8.14047083,1.70842392 C7.89451004,1.29869018 7.64836986,0.888956435 7.40258848,0.479049 C7.37980436,0.441358359 7.35217638,0.405578303 7.34876774,0.359550562 L14.3465404,0.359550562 C14.5462153,0.692513508 14.7444551,1.02582383 14.9453858,1.35791833 C15.42152,2.1443848 15.8989099,2.93015651 16.3757617,3.7162756 C17.1468335,4.98733602 17.9179053,6.25822276 18.6891565,7.52910949 C18.7187579,7.57774258 18.7510504,7.62446508 18.7826252,7.67275079 C18.837343,7.63836025 18.8527716,7.58972716 18.8773497,7.54838904 C20.2700511,5.2046217 21.6622142,2.86033329 23.0536598,0.515871194 C23.0834406,0.465848591 23.1252413,0.420689298 23.1318792,0.359550562 L30.1298313,0.359550562 Z" id="Fill-4" fill="#353535" mask="url(#mask-4)"></path>
                    </g>
                </g>
                <g id="Rails-logo" transform="translate(91.000000, 0.000000)">
                    <g id="Group-3" transform="translate(2.341463, 1.486569)">
                        <mask id="mask-6" fill="white">
                            <use xlink:href="#path-5"></use>
                        </mask>
                        <g id="Clip-2"></g>
                        <path d="M21.902439,3.60252358 C21.6493008,3.78723902 21.6042927,4.28154797 21.3425691,4.28102764 C21.0964553,4.28024715 20.8638699,3.92538537 20.6042276,3.76226341 C19.4108618,3.01273496 18.1282602,2.87146667 16.795187,3.24870244 C14.9173333,3.78021463 13.4138537,4.89319024 12.206439,6.4489626 C12.1666341,6.53169431 12.0438374,6.55224715 12.0508618,6.66984065 C10.8291382,8.31510894 10.2471545,10.1989463 10.1116098,12.2412228 C9.86341463,15.9745561 10.6865691,19.5174504 11.9418537,22.9809951 C11.9819187,23.0920846 12.0251057,23.2018732 12.0623089,23.3140033 C12.0695935,23.3358569 12.056065,23.3649951 12.0466992,23.4276943 L11.6744065,23.4276943 C8.01990244,23.4276943 4.36513821,23.4211902 0.710634146,23.4375805 C0.338341463,23.4394016 0.268878049,23.3061984 0.261853659,22.9685073 C0.181203252,18.8605398 1.09463415,14.9669463 2.69463415,11.235174 C3.5937561,9.13826341 4.54829268,7.06060488 5.88500813,5.20694634 C7.66582114,2.73670244 9.93782114,1.02977561 12.9278699,0.422035772 C14.8933984,0.0226861789 16.7470569,0.349710569 18.540878,1.19315772 C19.7857561,1.77878374 20.8810407,2.59517398 21.902439,3.52343415 L21.902439,3.60252358 Z" id="Fill-1" fill="#363636" mask="url(#mask-6)"></path>
                    </g>
                    <g id="Group-6" transform="translate(1.300813, 26.202016)">
                        <mask id="mask-8" fill="white">
                            <use xlink:href="#path-7"></use>
                        </mask>
                        <g id="Clip-5"></g>
                        <path d="M2.04420163,2.70085203 C2.65480325,2.70085203 2.65480325,2.70085203 2.65064065,2.09415285 C2.65012033,2.02859187 2.64933984,1.96277073 2.65012033,1.89694959 C2.65142114,1.80771382 2.62566504,1.74137236 2.52498211,1.74137236 C2.23047805,1.74059187 1.93597398,1.74007154 1.64146992,1.74163252 C1.57356748,1.74215285 1.5080065,1.76764878 1.5080065,1.84855935 C1.50878699,2.11080325 1.45363252,2.39906341 1.54260813,2.62670569 C1.61467317,2.81116098 1.89278699,2.6579252 2.04420163,2.70085203 L2.04420163,2.70085203 Z M0.0846569106,5.7236813 C0.0877788618,4.03626667 0.100266667,2.3491122 0.0872585366,0.661957724 C0.0846569106,0.334933333 0.166087805,0.232689431 0.487908943,0.249079675 C1.26813659,0.288884553 2.05252683,0.20355122 2.83041301,0.324266667 C3.45844553,0.421307317 4.01441301,0.657274797 4.22488455,1.33473821 C4.45122602,2.06397398 4.36589268,2.76979512 3.90878699,3.39756748 C3.72485203,3.65044553 3.4558439,3.77740488 3.08875447,3.87288455 C3.63301463,4.41714472 4.14813659,4.9320065 4.66325854,5.44686829 L4.60706341,5.54312846 C3.9977626,5.54312846 3.38846179,5.54156748 2.77916098,5.54442927 C2.62878699,5.54520976 2.55438049,5.43333984 2.46488455,5.34280325 C2.14670569,5.0217626 1.8300878,4.69890081 1.47002276,4.3331122 L1.47002276,5.7236813 L0.0846569106,5.7236813 Z" id="Fill-4" fill="#363636" mask="url(#mask-8)"></path>
                    </g>
                    <path d="M0,20.6843837 C0.202146341,20.222335 0.181593496,19.7194407 0.223219512,19.2334569 C0.256260163,18.8452943 0.384,18.7224976 0.762276423,18.7779122 C1.28104065,18.8536195 1.80682927,18.8843187 2.33079675,18.9144976 C2.54282927,18.9267252 2.61463415,18.9652293 2.56312195,19.2118634 C2.43902439,19.8029528 2.33235772,20.3997659 2.26081301,20.9997008 C2.22647154,21.2916033 2.1140813,21.3347902 1.8664065,21.2999285 C1.24617886,21.2122537 0.628292683,21.0964813 0,21.0800911 L0,20.6843837 Z" id="Fill-7" fill="#363636"></path>
                    <g id="Group-11" transform="translate(15.089431, 0.185756)">
                        <mask id="mask-10" fill="white">
                            <use xlink:href="#path-9"></use>
                        </mask>
                        <g id="Clip-10"></g>
                        <path d="M1.38109919,0.0743284553 C1.3865626,0.137287805 1.4268878,0.156019512 1.48126179,0.167726829 C1.65114797,0.203889431 1.91755447,0.10580813 1.97609106,0.273352846 C2.08666016,0.589450407 2.10435122,0.941190244 2.14909919,1.27966179 C2.16314797,1.38372683 2.07026992,1.39907642 1.9904,1.40115772 C1.50363577,1.4131252 1.01687154,1.41988943 0.530107317,1.43758049 C0.353196748,1.44408455 0.325619512,1.33715772 0.299603252,1.19406829 C0.230660163,0.819694309 0.149229268,0.447401626 0.0727414634,0.0743284553 L1.38109919,0.0743284553 Z" id="Fill-9" fill="#363636" mask="url(#mask-10)"></path>
                    </g>
                    <path d="M9.53329431,28.5841431 C9.53329431,28.5053138 9.52184715,28.4244033 9.53537561,28.3481756 C9.60744065,27.9321756 9.43989593,27.8203057 9.04236748,27.8366959 C8.24054634,27.8694764 8.23950569,27.8465821 8.23950569,28.6926309 C8.23950569,29.3266472 8.23950569,29.3266472 8.82331057,29.3266472 C9.53329431,29.3266472 9.53329431,29.3266472 9.53329431,28.5841431 M10.9337496,29.6117854 C10.9337496,30.2174439 10.9228228,30.8233626 10.9389528,31.428761 C10.9457171,31.673574 10.8700098,31.7643707 10.6358634,31.7380943 C10.5094244,31.7237854 10.3801236,31.7352325 10.2521236,31.7352325 C9.5980748,31.7352325 9.59287154,31.7354927 9.55306667,31.0601106 C9.54370081,30.8998504 9.51352195,30.8121756 9.33817236,30.8280455 C9.21121301,30.8394927 9.08243252,30.8301268 8.95417236,30.8301268 C8.27228618,30.8301268 8.26422114,30.8296065 8.23352195,31.5187772 C8.22493659,31.7086959 8.16666016,31.7563057 7.98844878,31.766452 C6.84581463,31.8314927 6.8460748,31.8361756 6.8460748,30.6654439 C6.84633496,29.7699642 6.84009106,28.8744846 6.84867642,27.979265 C6.85778211,27.0059967 7.27118049,26.5530537 8.21713171,26.4919154 C8.74057886,26.4583545 9.26714797,26.4518504 9.78747317,26.5488911 C10.6028228,26.7010862 10.9308878,27.1035577 10.9332293,27.9527285 C10.9347902,28.5058341 10.9337496,29.0586797 10.9337496,29.6117854" id="Fill-12" fill="#363636"></path>
                    <path d="M20.8696715,31.7941333 C20.4724033,31.7941333 20.0712325,31.8313366 19.6789073,31.7852878 C19.1057691,31.7181659 19.5077203,31.2503935 19.4242081,30.9798244 C19.3737366,30.8154016 19.2891837,30.5159545 19.6838504,30.5307837 C20.2853463,30.5531577 20.8884033,30.5466537 21.4904195,30.5305236 C21.7461593,30.5234992 22.1223545,30.5687675 22.1171512,30.1897106 C22.111948,29.8343285 21.7365333,29.908735 21.502387,29.8900033 C21.1066797,29.8582634 20.7094114,29.8671089 20.3303545,29.713613 C19.5927935,29.4152065 19.2446959,28.8074667 19.3328911,27.9559545 C19.4226472,27.0919545 19.8324033,26.6322472 20.6597203,26.5245398 C21.4251187,26.4248976 22.1957203,26.5021659 22.9639805,26.4982634 C23.1369886,26.4972228 23.1801756,26.5752715 23.1747122,26.739174 C23.1645659,27.0420033 23.1604033,27.3458732 23.1754927,27.6481821 C23.1861593,27.8622959 23.1034276,27.9166699 22.908826,27.9132878 C22.3323057,27.9028813 21.7555252,27.9127675 21.1787447,27.9075642 C20.9966309,27.9057431 20.8652488,27.9054829 20.8649886,28.1682472 C20.8647285,28.4401171 21.0117203,28.4213854 21.1857691,28.4216455 C21.5445333,28.4221659 21.9043382,28.4135805 22.2615415,28.4395967 C22.859135,28.4833041 23.2264846,28.8082472 23.3667122,29.4131252 C23.472078,29.8678894 23.4637528,30.3320195 23.3651512,30.7860033 C23.2285659,31.4140358 22.8573138,31.6999545 22.1377041,31.7678569 C22.0869724,31.7725398 22.0352,31.7751415 21.9842081,31.7751415 C21.6126959,31.7756618 21.2411837,31.7754016 20.8696715,31.7754016 L20.8696715,31.7941333 Z" id="Fill-14" fill="#363636"></path>
                    <path d="M15.2212813,29.1362341 C15.2212813,28.3723967 15.2277854,27.6082992 15.2171187,26.8444618 C15.2142569,26.6290472 15.2644683,26.5244618 15.4926309,26.5460553 C15.8571187,26.5806569 16.3204683,26.3717463 16.5611187,26.6157789 C16.7656065,26.822348 16.6141919,27.2916813 16.6178341,27.6444618 C16.6253789,28.4082992 16.6438504,29.1734374 16.6105496,29.9357138 C16.593639,30.319974 16.7271024,30.4001041 17.0621919,30.3782504 C17.4828748,30.3511935 17.9072,30.3829333 18.3291837,30.3673236 C18.5526634,30.3592585 18.6382569,30.4105106 18.641639,30.6675512 C18.655948,31.7594537 18.665574,31.7594537 17.6067122,31.7594537 C16.9152,31.7594537 16.2234276,31.7477463 15.5321756,31.7654374 C15.2717528,31.7722016 15.2106146,31.6824455 15.2158179,31.4280065 C15.2314276,30.6644293 15.2212813,29.9003317 15.2212813,29.1362341" id="Fill-16" fill="#363636"></path>
                    <path d="M12.3089431,29.1146407 C12.3089431,28.3495024 12.3172683,27.5843642 12.3037398,26.8194862 C12.2998374,26.575974 12.3406829,26.4497951 12.6130732,26.4789333 C12.9671545,26.5169171 13.4281626,26.3296 13.6526829,26.5509984 C13.8792846,26.7747382 13.7190244,27.2508358 13.7218862,27.6153236 C13.7309919,28.8552585 13.7185041,30.0954537 13.7309919,31.3353886 C13.7335935,31.6002341 13.6797398,31.7253724 13.3974634,31.6915512 C13.0454634,31.6494049 12.5735285,31.8481691 12.3698211,31.6093398 C12.1955122,31.404852 12.3133659,30.9326569 12.3099837,30.5788358 C12.305561,30.0907707 12.3089431,29.6027057 12.3089431,29.1146407" id="Fill-18" fill="#363636"></path>
                    <path d="M3.81629919,13.6485463 C3.46429919,13.5319935 3.09694959,13.4209041 2.73740488,13.2877008 C2.45278699,13.182335 2.02403902,13.2054894 1.92153496,12.9484488 C1.83698211,12.7366764 2.05031545,12.3859772 2.15828293,12.1081236 C2.28862439,11.7732943 2.27795772,11.2558309 2.57116098,11.1494244 C2.81961626,11.0594081 3.20257561,11.3411642 3.51893333,11.4756683 C3.85688455,11.6190179 4.36836423,11.6403512 4.48023415,11.9460423 C4.5772748,12.2121886 4.2996813,12.6237659 4.18546992,12.9703024 C4.12797398,13.1440911 4.06397398,13.315278 4.0054374,13.4888065 C3.97525854,13.5772618 3.95158374,13.6685789 3.81629919,13.6485463" id="Fill-20" fill="#363636"></path>
                    <path d="M16.3714341,22.8035382 C15.5912065,22.7559285 14.878361,22.7106602 14.1652553,22.6705951 C14.0591089,22.6643512 14.009678,22.622465 13.9818407,22.5157984 C13.8541008,22.0233106 13.7185561,21.5331642 13.5757268,21.0045138 C14.2092228,21.0045138 14.7958894,21.004774 15.3828163,21.0042537 C15.4632065,21.0042537 15.5334504,21.0162211 15.5735154,21.1015545 C15.8315967,21.6541398 16.0909789,22.2059447 16.3714341,22.8035382" id="Fill-22" fill="#363636"></path>
                    <path d="M6.80613984,7.49497236 C6.74396098,7.45724878 6.68750569,7.42706992 6.63495285,7.39090732 C6.23013984,7.11201301 5.83026992,6.82531382 5.4199935,6.5555252 C5.25869268,6.44937886 5.24854634,6.37523252 5.38122927,6.23058211 C5.69810732,5.88534634 6.00301789,5.52814309 6.30428618,5.16859837 C6.41173333,5.04033821 6.49524553,4.99090732 6.65212358,5.1051187 C7.03950569,5.38661463 7.44041626,5.64833821 7.83534309,5.91838699 C7.93004228,5.98290732 8.04555447,6.0289561 7.91703415,6.18167154 C7.58142439,6.58076098 7.25726179,6.98999675 6.92659512,7.39324878 C6.89511545,7.43175285 6.85010732,7.45854959 6.80613984,7.49497236" id="Fill-24" fill="#363636"></path>
                    <path d="M13.000013,16.1461333 C13.0309724,15.2946211 13.003135,15.3698081 13.7589073,15.665613 C14.603135,15.9962797 14.8981593,16.5478244 14.8099642,17.4250927 C14.7865496,17.657678 14.790452,17.7406699 14.5451187,17.6204748 C14.1533138,17.4284748 13.7550049,17.2427187 13.3449886,17.0967675 C13.0234276,16.9820358 12.886322,16.8098081 12.9802407,16.4606699 C13.0067772,16.3618081 12.9948098,16.2514992 13.000013,16.1461333" id="Fill-26" fill="#363636"></path>
                    <path d="M11.3788098,1.06370081 C11.4818341,1.04470894 11.521639,1.1222374 11.5702894,1.17843252 C11.8330537,1.4825626 12.0859317,1.7963187 12.3598829,2.08952195 C12.5094764,2.24978211 12.4519805,2.31430244 12.2977041,2.40197724 C11.940761,2.60490407 11.5861593,2.81303415 11.2406634,3.03547317 C11.086387,3.13485528 10.9987122,3.10597724 10.8930862,2.96626992 C10.6503545,2.64548943 10.3987772,2.33095285 10.1401756,2.02344065 C10.0145171,1.87410732 9.98589919,1.78825366 10.1953301,1.68731057 C10.5991024,1.49296911 10.9898667,1.27079024 11.3788098,1.06370081" id="Fill-28" fill="#363636"></path>
                    <path d="M14.5937431,13.6371252 C14.1041171,13.2062959 13.6725073,12.8194341 13.232052,12.4437593 C13.1069138,12.3368325 13.1045724,12.2457756 13.1774179,12.1091902 C13.3421008,11.7990764 13.4310764,11.303987 13.6683447,11.2150114 C13.9274667,11.1177106 14.1933528,11.5860033 14.4901984,11.7509463 C14.8905886,11.9739057 14.992052,12.2728325 14.8271089,12.710426 C14.7230439,12.9869789 14.6790764,13.2877268 14.5937431,13.6371252" id="Fill-30" fill="#363636"></path>
                    <path d="M14.3922732,8.15630569 C14.3855089,8.03897236 14.5080455,8.01815935 14.5481106,7.93542764 C14.880078,7.98641951 15.0065171,7.68411057 15.1883707,7.50850081 C15.4004033,7.30401301 15.5073301,7.32898862 15.6311675,7.57718374 C15.7063545,7.72833821 15.8119805,7.86362276 15.9035577,8.00619187 C16.3476553,8.69874472 16.3408911,8.69510244 15.9334764,9.40040325 C15.8257691,9.58667967 15.7742569,9.61451707 15.616078,9.44202927 C15.2245333,9.01458211 14.9042732,8.51506992 14.427135,8.17243577 C14.4169886,8.16489106 14.4039805,8.16176911 14.3922732,8.15630569" id="Fill-32" fill="#363636"></path>
                    <path d="M18.6590439,6.29705366 C18.6514992,6.40059837 18.4535154,6.4588748 18.3255154,6.56684228 C17.8405724,6.97555772 17.8364098,6.97035447 17.5442472,6.4052813 C17.2624911,5.86050081 17.2624911,5.86050081 17.8580033,5.7075252 C17.9196618,5.69191545 17.9813203,5.67422439 18.0429789,5.65835447 C18.5071089,5.54024065 18.6590439,5.66850081 18.6590439,6.29705366" id="Fill-34" fill="#363636"></path>
                    <path d="M21.376026,1.74204878 C21.8209041,2.07661789 22.2254569,2.3916748 22.6417171,2.68852033 C22.803278,2.8035122 22.7780423,2.89352846 22.6849041,3.03635772 C22.5922862,3.1784065 22.5150179,3.24474797 22.3521561,3.13495935 C22.1934569,3.02777236 22.017587,2.94790244 21.8497821,2.85450407 C21.2597333,2.52539837 21.2599935,2.52513821 21.376026,1.74204878" id="Fill-36" fill="#363636"></path>
                    <path d="M21.1194016,5.27812683 C21.4313366,5.34759024 21.7404098,5.43188293 22.0546862,5.48209431 C22.353613,5.52970407 22.2805073,5.74902114 22.2771252,5.93321626 C22.2727024,6.1736065 22.1030764,6.05367154 21.9951089,6.05237073 C21.8803772,6.05106992 21.764865,6.03858211 21.6506537,6.02531382 C21.0275642,5.95116748 21.0275642,5.95064715 21.1194016,5.27812683" id="Fill-38" fill="#363636"></path>
                </g>
                <g id="NodeJS-logo" transform="translate(126.000000, 0.000000)">
                    <g id="Group-3">
                        <mask id="mask-12" fill="white">
                            <use xlink:href="#path-11"></use>
                        </mask>
                        <g id="Clip-2"></g>
                        <path d="M10.5184308,17.5183761 C10.5184308,19.5778388 10.5160157,21.6368239 10.51988,23.6962866 C10.520846,24.1590925 10.4918638,24.6166448 10.3740026,25.0660776 C9.88613479,26.9211224 8.354906,27.5993313 6.43966241,27.4283463 C5.60400757,27.3533612 4.85240126,27.0156896 4.13074327,26.6178388 C3.23615787,26.1244657 2.36186004,25.5933612 1.46196122,25.1095403 C0.455794162,24.5679284 0.00270500986,23.730197 0.00222197239,22.6230925 C0.00222197239,18.3202866 0.00608627219,14.0174806 0.000289822485,9.71419701 C-0.00164232742,8.55168955 0.469319211,7.70536119 1.51461231,7.11646567 C5.30500738,4.98010746 9.07704702,2.81174925 12.8563322,0.655808955 C13.7847303,0.126137313 14.7208569,0.126137313 15.6449076,0.652465672 C19.466217,2.82846567 23.2822131,5.0135403 27.1035226,7.18906269 C28.0391662,7.7216 28.4980518,8.51443582 28.4985348,9.57139104 C28.5004669,13.9510925 28.501433,18.330794 28.4975687,22.7109731 C28.4966026,23.7493015 28.0435135,24.5392716 27.1257423,25.0603463 C23.2749675,27.2468537 19.4241928,29.4328836 15.5743841,31.6217791 C14.6870443,32.1266149 13.8055009,32.1275701 12.9239575,31.617003 C11.6511537,30.8800478 10.3793161,30.1407045 9.10941053,29.3980179 C8.96788055,29.3149134 8.75147976,29.2447045 8.77031822,29.059391 C8.78963972,28.8669134 9.02681112,28.865003 9.17800185,28.8110328 C9.63205708,28.6500776 10.082731,28.4814806 10.4889656,28.2235701 C10.7715425,28.0435104 11.0130612,28.0530627 11.3009516,28.2293015 C12.1457841,28.7465552 13.0109042,29.2303761 13.8571859,29.7457194 C14.129136,29.9109731 14.3561636,29.9171821 14.6329441,29.7590925 C18.3851792,27.6184358 22.1393464,25.4816 25.9007593,23.3571821 C26.2557918,23.1565851 26.3895932,22.927809 26.3881441,22.5189731 C26.3731699,18.2624955 26.3731699,14.0055403 26.3881441,9.74858507 C26.3895932,9.33592836 26.2427498,9.11670448 25.8906155,8.91706269 C22.172193,6.81031642 18.4610161,4.69162985 14.7546695,2.56434627 C14.4068825,2.36518209 14.1315512,2.34512239 13.7692731,2.55336119 C10.0513336,4.69067463 6.32518252,6.81461493 2.59371803,8.92852537 C2.23723637,9.13007761 2.10729929,9.3617194 2.1087484,9.76864478 C2.12372256,14.0098388 2.12275649,18.2515104 2.11019751,22.4931821 C2.1087484,22.8762269 2.21646576,23.1064358 2.56666793,23.2979582 C3.51776872,23.8176 4.44616675,24.3773612 5.38229337,24.9242269 C5.76340994,25.146794 6.17785609,25.2709731 6.61258982,25.3216 C7.57624959,25.432406 8.3510417,24.7011821 8.35442296,23.6652418 C8.36118548,21.6062567 8.35635511,19.546794 8.35635511,17.487809 C8.35635511,15.2750328 8.35587207,13.0617791 8.35683815,10.849003 C8.35732118,10.2906746 8.41383657,10.234794 8.96256714,10.2300179 C9.27316024,10.2276299 9.58423637,10.2276299 9.89482947,10.2300179 C10.4585342,10.2338388 10.5174648,10.287809 10.5179478,10.8337194 C10.5193969,13.0617791 10.5184308,15.2903164 10.5184308,17.5183761" id="Fill-1" fill="#363636" mask="url(#mask-12)"></path>
                    </g>
                    <path d="M17.5767755,9.7119416 C18.6959707,9.73878505 19.8050309,9.81691866 20.863416,10.2373062 C22.4343433,10.8604577 23.1741994,12.0693715 23.3619385,13.6766229 C23.3971697,13.9781324 23.2581752,14.1526148 22.944955,14.1559702 C22.4946708,14.1622017 22.0443866,14.1516561 21.5941023,14.1602843 C21.3272136,14.1660365 21.2152458,14.0270258 21.1394745,13.792625 C20.6978774,12.4183363 20.0579237,11.9433032 18.6211646,11.8186729 C17.6863302,11.7371838 16.7597002,11.7280763 15.8446532,11.9394684 C14.9455326,12.1475051 14.5386841,12.6177448 14.5053834,13.3597744 C14.4827002,13.8683618 14.7008444,14.1780202 15.1713986,14.3400396 C16.0570059,14.6449044 16.9817053,14.7551543 17.9015786,14.8864955 C19.128398,15.0619366 20.3610089,15.203344 21.5468056,15.594012 C22.8131998,16.0105648 23.6906025,16.7688922 23.8228404,18.1618754 C23.9589391,19.5903303 23.5062418,20.7776735 22.2779745,21.6050269 C21.4913043,22.1347057 20.6008709,22.3954706 19.6684495,22.5172248 C17.798298,22.7616919 15.9474512,22.7185506 14.1738236,22.0014471 C12.6830112,21.3979489 11.8881364,20.2633339 11.749142,18.6728596 C11.7023278,18.1383874 11.8167087,18.0151951 12.3601386,18.0089636 C12.4069527,18.0084843 12.4532842,18.0080049 12.4996157,18.0089636 C12.9026032,18.0171125 13.3379262,17.9337061 13.7003736,18.0588157 C14.1410055,18.2102895 13.9909107,18.7529106 14.1405228,19.1090656 C14.4629128,19.8755419 15.0714963,20.2532676 15.8330703,20.4090555 C17.1844056,20.6865975 18.5482891,20.7081682 19.9010722,20.4248739 C20.6052145,20.277235 21.2393768,19.9934614 21.4358031,19.1948688 C21.6302988,18.4049045 21.4097416,17.9567148 20.6443067,17.6647923 C19.7384294,17.3182242 18.7809118,17.2108504 17.8243594,17.1068321 C16.5608609,16.9697387 15.3050843,16.8259346 14.094674,16.383497 C11.5150714,15.4411003 11.7539682,12.0698509 13.3514395,10.8666892 C14.4431254,10.0441293 15.7008325,9.79918281 17.0179018,9.71337964 C17.2032278,9.70187531 17.3904843,9.7119416 17.5767755,9.7119416" id="Fill-4" fill="#363636"></path>
                </g>
                <g id="Laravel-logo" transform="translate(165.000000, 0.000000)">
                    <path d="M0,1.56753142 C0.0132307692,1.54911437 0.0261538462,1.53016348 0.0393846154,1.51147952 C0.0452307692,1.53843781 0.0384615385,1.56352771 0.0310769231,1.58968526 C0.0144615385,1.64760556 0.0135384615,1.70659351 0.0310769231,1.7642469 C0.0403076923,1.79627655 0.0449230769,1.82777238 0.0378461538,1.86033587 L0,1.80241557 L0,1.56753142 Z" id="Fill-1" fill="#363636"></path>
                    <g id="Group-5" transform="translate(9.608897, 0.136393)">
                        <mask id="mask-14" fill="white">
                            <use xlink:href="#path-13"></use>
                        </mask>
                        <g id="Clip-4"></g>
                        <path d="M0.4561557,0.148514551 C0.346721038,0.148822243 0.237286376,0.148822243 0.127851715,0.148822243 C0.122780352,0.144206858 0.121178869,0.140206858 0.12331418,0.136206858 C0.125182576,0.132206858 0.127317887,0.130360704 0.12891937,0.130360704 L0.454287303,0.130360704 C0.459625579,0.13374532 0.461493976,0.13774532 0.460426321,0.142053012 C0.459091752,0.146360704 0.457757183,0.148514551 0.4561557,0.148514551" id="Fill-3" fill="#E79389" mask="url(#mask-14)"></path>
                    </g>
                    <g id="Group-8" transform="translate(26.958295, 30.297653)">
                        <mask id="mask-16" fill="white">
                            <use xlink:href="#path-15"></use>
                        </mask>
                        <g id="Clip-7"></g>
                        <path d="M0.0143370109,0.250365153 L0.309413934,0.250365153 C0.315260088,0.25528823 0.316798549,0.259595922 0.314337011,0.263595922 C0.312183165,0.267595922 0.309721626,0.269442076 0.307875472,0.269442076 L0.0161831647,0.269442076 C0.00972162626,0.265749768 0.00756778011,0.261749768 0.00879854934,0.257134384 C0.0106447032,0.252826691 0.012490857,0.250365153 0.0143370109,0.250365153" id="Fill-6" fill="#E4897C" mask="url(#mask-16)"></path>
                    </g>
                    <g id="Group-11" transform="translate(9.608897, 0.136393)">
                        <mask id="mask-18" fill="white">
                            <use xlink:href="#path-17"></use>
                        </mask>
                        <g id="Clip-10"></g>
                        <path d="M0.148559036,0.13046747 C0.148559036,0.136929008 0.148251344,0.142775162 0.147020575,0.149236701 C0.09840519,0.150159778 0.0497898054,0.157544393 0.00117442076,0.148621316 C0.00178980538,0.14246747 0.00240518999,0.136621316 0.0027128823,0.13046747 L0.148559036,0.13046747 Z" id="Fill-9" fill="#F2C1BA" mask="url(#mask-18)"></path>
                    </g>
                    <g id="Group-14" transform="translate(9.875811, 0.136393)">
                        <mask id="mask-20" fill="white">
                            <use xlink:href="#path-19"></use>
                        </mask>
                        <g id="Clip-13"></g>
                        <path d="M0.189535153,0.148514551 C0.187996692,0.142668397 0.187073615,0.136822243 0.187381307,0.130360704 L0.291381307,0.130360704 C0.291689,0.136514551 0.291996692,0.142668397 0.291996692,0.148822243 C0.257842846,0.148822243 0.223689,0.148822243 0.189535153,0.148514551" id="Fill-12" fill="#F8DBD7" mask="url(#mask-20)"></path>
                    </g>
                    <g id="Group-17" transform="translate(26.691381, 30.297653)">
                        <mask id="mask-22" fill="white">
                            <use xlink:href="#path-21"></use>
                        </mask>
                        <g id="Clip-16"></g>
                        <path d="M0.28862873,0.250365153 C0.290474884,0.256826691 0.291090269,0.262980538 0.290474884,0.269442076 L0.228013346,0.269442076 C0.228013346,0.26328823 0.227705653,0.257134384 0.227090269,0.25128823 C0.247705653,0.250980538 0.268013346,0.250672845 0.28862873,0.250365153" id="Fill-15" fill="#F8D9D5" mask="url(#mask-22)"></path>
                    </g>
                    <g id="Group-20" transform="translate(27.225209, 30.297653)">
                        <mask id="mask-24" fill="white">
                            <use xlink:href="#path-23"></use>
                        </mask>
                        <g id="Clip-19"></g>
                        <path d="M0.00118863081,0.269308619 C0.000880938504,0.262847081 0.00118863081,0.256693234 0.00272709235,0.250231696 C0.0236501693,0.250847081 0.0445732462,0.251154773 0.0651886308,0.251770158 C0.0645732462,0.257616311 0.0639578616,0.263462465 0.0636501693,0.269308619 L0.00118863081,0.269308619 Z" id="Fill-18" fill="#F3C4BE" mask="url(#mask-24)"></path>
                    </g>
                    <path d="M42.0484538,13.9844953 C41.9619737,14.0357427 41.8656178,14.0613665 41.7692619,14.084588 C40.4245501,14.4078206 39.0827744,14.7427974 37.7407318,15.0761728 C37.399349,15.1607844 37.0579663,15.2451292 36.7163166,15.329474 C36.6399792,15.3484248 36.6397123,15.3484248 36.5919348,15.282764 C35.5864704,13.9038873 34.581273,12.5247437 33.5758087,11.1458669 C33.2976845,10.7641802 33.0190265,10.3822265 32.7409023,10.0002728 C32.7003314,9.94422095 32.6586929,9.88843596 32.6306669,9.82464356 C32.5863592,9.72348323 32.6135844,9.6631607 32.7219514,9.63513475 C32.7972211,9.61565005 32.87516,9.60604115 32.9522981,9.59216163 C33.6270562,9.47258424 34.3023481,9.35354069 34.9771062,9.23316256 C35.6251729,9.11758888 36.2732397,9.00068063 36.9210395,8.88270473 C37.213577,8.82958888 37.5058476,8.77273624 37.7978513,8.7158836 C37.8394899,8.70760927 37.8808615,8.70227099 37.9294399,8.70093642 C38.021792,8.69453049 38.1058699,8.73056386 38.1806057,8.7914202 C38.2321201,8.83332567 38.2772285,8.8821709 38.3177994,8.93475292 C39.2378513,10.1294591 40.1779218,11.3086843 41.109451,12.4945824 C41.4310821,12.9040282 41.7543147,13.3121394 42.0770135,13.7210513 C42.0844871,13.7306602 42.0916938,13.7400022 42.0986335,13.749878 C42.1749709,13.8539744 42.1613583,13.917233 42.0484538,13.9844953 M40.7862184,23.2197131 C40.8500108,23.3069939 40.9130024,23.3953424 40.966919,23.489296 C41.0339144,23.6064712 41.0157642,23.675068 40.8993898,23.7439318 C40.8371989,23.7810328 40.7691359,23.8055889 40.7008059,23.8288104 C39.5162424,24.2310495 38.3322128,24.6335555 37.1473824,25.0352608 C35.3334361,25.6502302 33.5186892,26.2635981 31.7052767,26.8793683 C30.4523833,27.3048289 29.2005576,27.7334925 27.9484649,28.1610884 C27.8771989,28.1853776 27.8070006,28.212069 27.7368022,28.2390272 C27.5747855,28.3022858 27.4306521,28.2734591 27.3019996,28.1578854 C27.1888282,28.0561913 27.1007466,27.9344786 27.0214732,27.806093 C26.7745779,27.4065231 26.5378254,27.0013479 26.3000052,26.5967066 C25.4322684,25.1206732 24.5736067,23.6393016 23.7144111,22.1584638 C23.4122647,21.6379818 23.1117197,21.1166992 22.8103741,20.5956834 C22.7983629,20.5748641 22.7868856,20.5537779 22.7679348,20.5198799 C22.8845761,20.488651 22.9916085,20.4595574 23.098641,20.4315314 C25.4320015,19.8243025 27.765362,19.2170736 30.0989894,18.6101116 C31.8651581,18.150486 33.6313268,17.6916612 35.3974955,17.2320356 C35.5952786,17.1807881 35.7943963,17.134879 35.9884426,17.0694851 C36.0255437,17.057207 36.0642462,17.0500004 36.1024148,17.0414591 C36.1816882,17.0235759 36.2510858,17.0459967 36.312476,17.0961765 C36.3549153,17.1306083 36.3888133,17.1730476 36.4195084,17.2178892 C36.7779737,17.7421079 37.1575251,18.2513794 37.5317383,18.7646547 C38.6154083,20.2505639 39.7012137,21.7346046 40.7862184,23.2197131 M19.7635529,19.3951051 C19.6357012,19.4287362 19.506248,19.4570291 19.3775956,19.4877242 C18.1231006,19.7869346 16.8686057,20.0864119 15.6138439,20.3858892 C14.4266113,20.6693516 13.2393787,20.9533479 12.0518791,21.2354758 C11.8677086,21.2789828 11.6846057,21.3283618 11.4974992,21.35879 C11.482552,21.3611922 11.4678717,21.3651959 11.4529246,21.3659967 C11.3352156,21.3732033 11.2887726,21.3806769 11.2281831,21.2320059 C11.1371655,21.0096667 11.0258625,20.7956019 10.9212323,20.5786009 C9.8687911,18.4008512 8.81688378,16.2228345 7.76310806,14.0456185 C7.02402373,12.5180708 6.28280408,10.9913238 5.54211826,9.46484374 C4.7368393,7.80570751 3.93129342,6.14683818 3.12521372,4.48796886 C2.81239073,3.84390584 2.49796627,3.20037665 2.18380871,2.55711437 C2.14830918,2.48344615 2.1160126,2.40924411 2.10480222,2.32756849 C2.10159926,2.30408007 2.09973086,2.27925709 2.10266691,2.25603559 C2.11120816,2.19037479 2.13469657,2.16768712 2.20062428,2.16074736 C2.30552141,2.15033772 2.41041854,2.14099574 2.51531566,2.13218758 C2.90207377,2.0996241 3.2890988,2.06812827 3.67558999,2.03449713 C4.11920074,1.99579462 4.56254458,1.95442298 5.00615533,1.91518665 C5.38383837,1.88182243 5.76152141,1.85112734 6.13920445,1.81776311 C6.51395144,1.78493272 6.8881646,1.74943318 7.26291158,1.71660278 C7.57173086,1.68964449 7.88055014,1.6648215 8.18936942,1.63786321 C8.56998851,1.60476589 8.9506076,1.57033401 9.33095978,1.53696979 C9.37900426,1.53296608 9.42731566,1.53083077 9.47536015,1.52789472 C9.52927674,1.52549249 9.5826595,1.51908656 9.63737683,1.52442484 C9.70410528,1.5313646 9.74707841,1.5623266 9.77964189,1.61971307 C9.94646302,1.91251752 10.1140849,2.20478814 10.2830413,2.49652493 C11.3103926,4.26990028 12.3382777,6.04247488 13.3656289,7.81585023 C14.672172,10.071005 15.9779144,12.3261598 17.2839236,14.5810476 C18.1257698,16.0343933 18.9670821,17.4874721 19.8089283,18.940284 C19.8465631,19.0056778 19.8847318,19.0710717 19.9055511,19.1436723 C19.9442536,19.2797983 19.9007466,19.3585379 19.7635529,19.3951051 M44.0644538,14.3976778 C44.0564463,14.3888697 44.0492397,14.3792608 44.0414992,14.3696519 C43.1492063,13.2833127 42.2742628,12.1828271 41.3915789,11.0884804 C40.6127244,10.1230532 39.8341368,9.15762595 39.0542146,8.19326636 C38.895134,7.99601705 38.7221739,7.81211344 38.5155826,7.66210788 C38.30045,7.50623021 38.0615622,7.44110324 37.7994528,7.48194106 C37.3448986,7.55213939 36.8908782,7.62794291 36.4371247,7.70267878 C35.9177105,7.7880912 35.39883,7.87563892 34.8799496,7.962119 C34.3575993,8.04886599 33.8355158,8.13507915 33.3134324,8.22235996 C32.7854769,8.31044152 32.2575214,8.39852308 31.7300997,8.48900686 C31.5168356,8.52557405 31.3011692,8.55119778 31.0929765,8.61312178 C30.9624556,8.6520912 30.8362054,8.70093642 30.735312,8.79702539 C30.6349524,8.89258054 30.6010543,9.00762039 30.6386892,9.14241186 C30.6592415,9.21581316 30.6915381,9.28334235 30.7326428,9.34633401 C30.7657401,9.39678072 30.8015066,9.44535904 30.8362054,9.49447118 C32.2770061,11.5355611 33.7178069,13.5769179 35.1583407,15.6180078 C35.1714195,15.6364248 35.1925057,15.6527066 35.1887689,15.6775296 C35.1802276,15.6922098 35.1674158,15.6924767 35.1562054,15.6951459 C34.9541516,15.7437242 34.7526317,15.7917687 34.5508449,15.8400801 C33.1060404,16.1860004 31.661236,16.5316538 30.2166984,16.877841 C28.9945001,17.1706454 27.7725687,17.4634499 26.5503703,17.7565212 C25.5796048,17.9892701 24.6091062,18.2222858 23.6383407,18.4550347 C23.0564686,18.5946306 22.4745965,18.7339596 21.8924575,18.8730217 C21.8121164,18.8925064 21.8118495,18.8922395 21.7675418,18.8180374 L21.4152156,18.2292256 C19.4550006,14.951524 17.4945186,11.6740893 15.5343036,8.39612085 C14.1620997,6.10279741 12.7898958,3.80947396 11.4182258,1.5158836 C11.2530061,1.23936089 11.0888541,0.96257127 10.8977438,0.702330306 C10.7474714,0.498141242 10.5611655,0.351872475 10.3054621,0.307564782 C10.2550154,0.29902354 10.2045687,0.291016126 10.154122,0.282741798 C10.1220923,0.269929935 10.0887281,0.278738091 10.0561646,0.276335867 L9.74040556,0.276335867 L9.6077494,0.276335867 C9.43665765,0.279805746 9.26583281,0.287279333 9.09474106,0.293685264 C8.80033513,0.305162558 8.50699685,0.334256163 8.21339166,0.355342354 C7.93766969,0.37536089 7.66194773,0.398849305 7.38649268,0.419401668 C7.11957887,0.43915329 6.85293197,0.460239481 6.58628508,0.482126413 C6.24783837,0.510152363 5.90912475,0.535776089 5.57067804,0.563535125 C5.23810343,0.59049342 4.90552882,0.616117146 4.57295422,0.643876182 C4.17151585,0.676973494 3.77007748,0.710070806 3.36863911,0.742901205 C2.96720074,0.775731603 2.56576237,0.807494347 2.164324,0.840858573 C1.74179944,0.876091196 1.31927488,0.90865468 0.897017238,0.945488786 C0.695764226,0.963372011 0.493977386,0.983390547 0.313009824,1.08428397 C0.146455607,1.17743689 0.0316826691,1.30875848 0.0183369787,1.50921075 C0.00819425394,1.62665283 -0.000346987952,1.74436182 0.0327503244,1.86020241 C0.0549041705,2.05638406 0.116828174,2.24188916 0.191830955,2.42258981 C0.37093012,2.85659166 0.570314736,3.28125153 0.765962558,3.70804671 C1.56430176,5.44699018 2.36264096,7.18566673 3.16471696,8.92300871 C4.26787173,11.3132219 5.37396256,13.7018335 6.47898573,16.091246 C7.04217386,17.3091737 7.60589583,18.5268345 8.16935088,19.7444953 C8.57452604,20.6210402 8.9797012,21.4975852 9.38460945,22.3746639 C9.46842039,22.5556315 9.56984764,22.7256556 9.70036849,22.8775296 C10.0123907,23.2413331 10.4060886,23.4380486 10.8851989,23.4690106 C11.1619885,23.4868938 11.4315715,23.448992 11.6984853,23.3835981 C12.6420256,23.1527177 13.5826298,22.9108938 14.5229672,22.6674684 C16.3566651,22.1926287 18.1898291,21.7151199 20.0229931,21.2384119 C20.3024519,21.1655444 20.5819107,21.0934777 20.8603018,21.0174072 C20.9104816,21.0037946 20.9374399,21.0107344 20.9598606,21.0590458 C20.9873527,21.1188345 21.0225854,21.1754202 21.054615,21.2333405 C22.1815251,23.2682914 23.308969,25.3029753 24.4604352,27.3243136 C24.8909672,28.0802135 25.3198977,28.8369142 25.7805909,29.5746639 C25.9276604,29.8103488 26.0928801,30.0318873 26.2962684,30.2232645 C26.4732323,30.3898187 26.6755529,30.5083285 26.9184445,30.5488994 C26.938463,30.559309 26.960083,30.5537038 26.9809023,30.5553053 L27.2160534,30.5553053 L27.2755752,30.5553053 C27.3839422,30.5529031 27.4917753,30.5459633 27.5972063,30.5187381 C27.8478384,30.4541449 28.0979366,30.3866158 28.3432304,30.3041394 C29.4701405,29.9256556 30.5879755,29.5202135 31.7087466,29.1238465 C32.4379551,28.8657409 33.166096,28.6046992 33.8942369,28.3444582 C34.8009431,28.019891 35.7073824,27.6942562 36.6135548,27.3683544 C37.482893,27.0552645 38.3530321,26.7445768 39.2218365,26.4298854 C40.3081757,26.0361876 41.3963833,25.6467603 42.4789857,25.2426528 C42.7104,25.1559058 42.9420812,25.0707603 43.1534769,24.9397057 C43.3993045,24.7872979 43.4585594,24.6065972 43.3485909,24.3404842 C43.3045501,24.2339855 43.2388893,24.1400319 43.1716271,24.0474128 C42.515286,23.1436426 41.8474677,22.2489475 41.1812508,21.3523841 C40.5099626,20.4488808 39.8357383,19.547246 39.1636493,18.6440096 C38.7232415,18.0525286 38.2782962,17.4645175 37.8394899,16.871435 C37.7783666,16.7889587 37.7778328,16.7876241 37.8792601,16.760132 C38.2686873,16.654701 38.6589153,16.5530069 39.0486095,16.4486436 C39.9003314,16.2209661 40.7525872,15.9940893 41.6045761,15.7666788 C42.2849394,15.5849105 42.9653027,15.4023414 43.6461998,15.2229753 C43.7975399,15.1829383 43.9483462,15.1407659 44.0847392,15.0593572 C44.1680163,15.0097112 44.2344778,14.9496556 44.2451544,14.84636 L44.2451544,14.6840764 C44.2099218,14.5727733 44.1407911,14.4828234 44.0644538,14.3976778" id="Fill-21" fill="#363636"></path>
                </g>
            </g>
        </g>
    </g>
</svg>