<svg xmlns="http://www.w3.org/2000/svg" viewBox="0 0 353 353"><defs><style>.cls-1{fill:#4db6ac;}.cls-2{fill:#fff;}</style></defs><title>codepen</title><g id="Capa_2" data-name="Capa 2"><g id="Icons"><g id="Codepen"><circle class="cls-1" cx="176.5" cy="176.5" r="176.5"/><path id="Codepen-2" data-name="Codepen" class="cls-2" d="M295.74,138.81c0-.16-.06-.29-.09-.45a7.7,7.7,0,0,0-.18-.86c-.05-.17-.11-.33-.16-.5s-.16-.5-.24-.74-.16-.34-.25-.5a3.23,3.23,0,0,0-.36-.68,3.85,3.85,0,0,0-.29-.48c-.13-.21-.28-.43-.43-.63s-.21-.29-.34-.44-.34-.38-.53-.56l-.39-.4c-.19-.16-.39-.33-.58-.48l-.46-.36c-.06,0-.12-.1-.18-.13L182.2,58.9a10.25,10.25,0,0,0-11.39,0L61.75,131.62a1.07,1.07,0,0,0-.17.13c-.16.11-.3.23-.46.36s-.39.32-.58.48-.28.27-.41.4a7.18,7.18,0,0,0-.51.56,5.36,5.36,0,0,0-.35.44c-.15.19-.3.41-.44.63s-.19.32-.3.48l-.34.68c-.08.16-.16.33-.23.5s-.19.49-.28.74-.11.33-.15.5a7.68,7.68,0,0,0-.17.86,2.88,2.88,0,0,0-.09.45,9.27,9.27,0,0,0-.1,1.33v72.72a9.73,9.73,0,0,0,.1,1.34,3.06,3.06,0,0,0,.09.44c.05.29.1.58.17.86s.11.34.15.5.18.5.28.76.15.33.23.49l.34.68c.11.16.2.32.3.48s.29.41.44.61a4,4,0,0,0,.35.45,7,7,0,0,0,.51.55,4.14,4.14,0,0,0,.41.4,6.08,6.08,0,0,0,.58.49c.16.13.3.24.46.36s.11.1.17.13l109.06,72.72a10.28,10.28,0,0,0,11.39,0L291.27,221.4c.06,0,.12-.1.18-.13l.46-.36.58-.49c.13-.13.26-.26.39-.4s.36-.37.53-.55.23-.29.34-.45a6,6,0,0,0,.43-.61,3.85,3.85,0,0,0,.29-.48,4,4,0,0,0,.36-.68c.09-.16.17-.33.25-.49s.16-.51.24-.76.12-.33.16-.5a5.62,5.62,0,0,0,.18-.86c0-.14.06-.31.09-.44a12.12,12.12,0,0,0,.09-1.34V140.15A10.23,10.23,0,0,0,295.74,138.81Zm-109-52.22,80.35,53.57-35.89,24-44.45-29.75V86.6Zm-20.5,0v47.82l-44.47,29.75-35.89-24ZM77.69,159.34l25.65,17.16L77.69,193.67Zm88.57,107.07L85.89,212.85l35.89-24,44.47,29.74Zm10.25-65.64L140.24,176.5l36.27-24.25,36.28,24.25Zm10.25,65.64V218.58l44.45-29.74,35.89,24Zm88.56-72.75L249.68,176.5l25.65-17.16Z"/></g></g></g></svg>