<svg xmlns="http://www.w3.org/2000/svg" viewBox="0 0 161.1 198"><defs><style>.cls-1{fill:#fff;}</style></defs><title>github</title><g id="Capa_2" data-name="Capa 2"><g id="Icons"><path class="cls-1" d="M63.66,196.1c0,4.23,12.89,1,17.17-8.25,3.3-7.22,1.86-46.88,1.86-46.88l3.52-.07s.2,18.15.08,26.45c-.12,8.6-.71,19.46,4.48,24.59,3.41,3.37,14.47,9.28,14.47,3.88,0-3.14-6.06-5.72-6.06-14.22V142.49c4.84,0,4.11,12.86,4.11,12.86l.36,23.89s-1.07,8.7,9.58,12.35c3.76,1.29,11.79,1.64,12.17-.53s-9.68-5.4-9.77-12.14c-.06-4.11.19-6.51.19-24.38s-2.44-24.47-10.95-29.73c26.25-2.66,42.51-9,50.42-26.13.62,0,3.23-8,2.89-8a95.06,95.06,0,0,0,2.92-23.13c0-24.51-12-33.18-14.27-37.25,3.38-18.56-.57-27-2.4-29.9-6.77-2.36-23.53,6.08-32.7,12C96.8,8.15,65.22,8.56,53.38,13.55,31.53-1.83,20,.53,20,.53S12.5,13.69,18,32.94c-7.19,9-12.54,15.37-12.54,32.26,0,9.52,1.14,18,3.71,25.47-.31,0,3.45,8,3.55,8,8.21,14.65,24,23.76,50.74,26.28-3.81,2.84-8.39,8.24-9,14.48-4.79,3-14.43,4-21.92,1.73C22,137.85,18,117.43,2.28,120.34c-3.4.63-2.73,2.83.22,4.71a30.51,30.51,0,0,1,12.78,15c2.67,6.23,8.29,17.37,26,17.37a79.13,79.13,0,0,0,12-.84s.13,15.9.13,22.09c0,7.13-9.8,9.14-9.8,12.57,0,1.35,3.24,1.49,5.85,1.49,5.15,0,15.86-4.23,15.86-11.64,0-5.89.1-25.69.1-29.15,0-7.57,4.13-10,4.13-10s.51,40.42-1,45.84C66.84,194.16,63.66,193.25,63.66,196.1Z"/></g></g></svg>