<?xml version="1.0" encoding="utf-8"?>
<!-- Generator: Adobe Illustrator 21.0.0, SVG Export Plug-In . SVG Version: 6.00 Build 0)  -->
<svg version="1.1" id="Capa_1" xmlns="http://www.w3.org/2000/svg" xmlns:xlink="http://www.w3.org/1999/xlink" x="0px" y="0px"
	 viewBox="0 0 353 353" style="enable-background:new 0 0 353 353;" xml:space="preserve">
<style type="text/css">
	.st0{fill:#95989A;}
	.st1{fill:#FFFFFF;}
</style>
<g>
	<circle class="st0" cx="176.5" cy="176.5" r="176.5"/>
	<path id="Codepen_1_" class="st1" d="M295.7,138.8c0-0.2-0.1-0.3-0.1-0.5c-0.1-0.3-0.1-0.6-0.2-0.9c-0.1-0.2-0.1-0.3-0.2-0.5
		c-0.1-0.3-0.2-0.5-0.2-0.7c-0.1-0.2-0.2-0.3-0.3-0.5c-0.1-0.2-0.2-0.5-0.4-0.7c-0.1-0.2-0.2-0.3-0.3-0.5c-0.1-0.2-0.3-0.4-0.4-0.6
		c-0.1-0.1-0.2-0.3-0.3-0.4c-0.2-0.2-0.3-0.4-0.5-0.6c-0.1-0.1-0.3-0.3-0.4-0.4c-0.2-0.2-0.4-0.3-0.6-0.5c-0.2-0.1-0.3-0.2-0.5-0.4
		c-0.1,0-0.1-0.1-0.2-0.1L182.2,58.9c-3.5-2.3-7.9-2.3-11.4,0L61.7,131.6c-0.1,0-0.1,0.1-0.2,0.1c-0.2,0.1-0.3,0.2-0.5,0.4
		c-0.2,0.1-0.4,0.3-0.6,0.5c-0.2,0.1-0.3,0.3-0.4,0.4c-0.2,0.2-0.4,0.4-0.5,0.6c-0.1,0.1-0.3,0.3-0.4,0.4c-0.2,0.2-0.3,0.4-0.4,0.6
		c-0.1,0.2-0.2,0.3-0.3,0.5c-0.1,0.2-0.2,0.5-0.3,0.7c-0.1,0.2-0.2,0.3-0.2,0.5c-0.1,0.2-0.2,0.5-0.3,0.7c-0.1,0.2-0.1,0.3-0.2,0.5
		c-0.1,0.3-0.1,0.6-0.2,0.9c0,0.2-0.1,0.3-0.1,0.5c-0.1,0.4-0.1,0.9-0.1,1.3v72.7c0,0.5,0,0.9,0.1,1.3c0,0.1,0.1,0.3,0.1,0.4
		c0.1,0.3,0.1,0.6,0.2,0.9c0,0.2,0.1,0.3,0.2,0.5c0.1,0.2,0.2,0.5,0.3,0.8c0.1,0.2,0.2,0.3,0.2,0.5c0.1,0.2,0.2,0.5,0.3,0.7
		c0.1,0.2,0.2,0.3,0.3,0.5c0.1,0.2,0.3,0.4,0.4,0.6c0.1,0.2,0.2,0.3,0.4,0.5c0.2,0.2,0.3,0.4,0.5,0.6c0.1,0.1,0.3,0.3,0.4,0.4
		c0.2,0.2,0.4,0.3,0.6,0.5c0.2,0.1,0.3,0.2,0.5,0.4c0.1,0,0.1,0.1,0.2,0.1l109.1,72.7c1.7,1.2,3.7,1.7,5.7,1.7c2,0,4-0.6,5.7-1.7
		l109.1-72.7c0.1,0,0.1-0.1,0.2-0.1c0.1-0.1,0.3-0.2,0.5-0.4c0.2-0.1,0.4-0.3,0.6-0.5c0.1-0.1,0.3-0.3,0.4-0.4
		c0.2-0.2,0.4-0.4,0.5-0.6c0.1-0.1,0.2-0.3,0.3-0.5c0.2-0.2,0.3-0.4,0.4-0.6c0.1-0.2,0.2-0.3,0.3-0.5c0.2-0.2,0.3-0.5,0.4-0.7
		c0.1-0.2,0.2-0.3,0.3-0.5c0.1-0.3,0.2-0.5,0.2-0.8c0.1-0.2,0.1-0.3,0.2-0.5c0.1-0.3,0.1-0.6,0.2-0.9c0-0.1,0.1-0.3,0.1-0.4
		c0.1-0.5,0.1-0.9,0.1-1.3v-72.7C295.8,139.7,295.8,139.2,295.7,138.8z M186.8,86.6l80.4,53.6l-35.9,24l-44.5-29.7L186.8,86.6
		L186.8,86.6z M166.3,86.6v47.8l-44.5,29.7l-35.9-24L166.3,86.6z M77.7,159.3l25.7,17.2l-25.7,17.2V159.3z M166.3,266.4l-80.4-53.6
		l35.9-24l44.5,29.7V266.4z M176.5,200.8l-36.3-24.3l36.3-24.3l36.3,24.3L176.5,200.8z M186.8,266.4v-47.8l44.5-29.7l35.9,24
		L186.8,266.4z M275.3,193.7l-25.6-17.2l25.6-17.2V193.7z"/>
</g>
<g>
</g>
<g>
</g>
<g>
</g>
<g>
</g>
<g>
</g>
<g>
</g>
<g>
</g>
<g>
</g>
<g>
</g>
<g>
</g>
<g>
</g>
<g>
</g>
<g>
</g>
<g>
</g>
<g>
</g>
</svg>
