<?xml version="1.0" encoding="utf-8"?>
<!-- Generator: Adobe Illustrator 21.0.0, SVG Export Plug-In . SVG Version: 6.00 Build 0)  -->
<svg version="1.1" id="Capa_1" xmlns="http://www.w3.org/2000/svg" xmlns:xlink="http://www.w3.org/1999/xlink" x="0px" y="0px"
	 viewBox="0 0 353 353" style="enable-background:new 0 0 353 353;" xml:space="preserve">
<style type="text/css">
	.st0{fill:#95989A;}
	.st1{fill:#FFFFFF;}
</style>
<g>
	<circle class="st0" cx="176.5" cy="176.5" r="176.5"/>
	<g id="mail">
		<path class="st1" d="M276,119.2c-4.7-11-11.4-20.5-20.1-28.5c-8.7-8-19.1-14.4-31.3-18.9c-12.2-4.6-25.9-6.8-41-6.8
			c-10.9,0-21.3,1.4-31.2,4.1c-9.9,2.7-19,6.6-27.5,11.6c-8.5,5-16.1,11.1-23,18.2c-6.9,7.1-12.7,15-17.6,23.8
			c-4.8,8.8-8.5,18.3-11.1,28.5c-2.6,10.2-3.9,21-3.9,32.1c0,16.3,2.7,30.9,8,43.7c5.3,12.9,13,23.8,23.1,32.7
			c10.1,8.9,22.3,15.8,36.8,20.5c14.4,4.7,30.8,7.1,49.2,7.1c10.5,0,20.1-0.8,28.8-2.3c8.7-1.6,17.3-4.1,25.7-7.7l-6.8-16.5
			c-6.7,2.9-14,5-21.9,6.5c-7.9,1.5-16.5,2.2-26,2.2c-15.4,0-29.1-1.9-41.2-5.8c-12.1-3.8-22.4-9.5-30.8-16.8
			c-8.4-7.4-14.8-16.4-19.3-27.1c-4.5-10.7-6.7-22.9-6.7-36.6c0-14,2.4-27.1,7.1-39.3c4.7-12.2,11.3-22.8,19.8-31.8
			c8.5-9,18.5-16.1,30.2-21.3c11.7-5.2,24.5-7.8,38.5-7.8c11.6,0,22.4,1.8,32.3,5.4c9.9,3.6,18.4,8.6,25.5,15
			c7.1,6.4,12.7,14,16.7,22.7c4,8.8,6,18.3,6,28.7c0,9.9-1.2,18.8-3.6,26.8c-2.4,7.9-5.6,14.6-9.6,20.1c-4,5.5-8.7,9.6-14.1,12.5
			c-5.4,2.9-11,4.4-17,4.4c-2.6,0-4.5-0.7-5.6-2.1c-1.2-1.4-1.7-3.4-1.7-6c0-2.1,0.3-4.5,0.9-7.4c0.6-2.9,1.3-6.7,2.1-10.6
			l17.3-77.4h-21.3l-2.5,11.4c-4.3-4.6-9.2-8-14.6-10.4c-5.5-2.4-11.9-3.5-19.2-3.5c-8.3,0-16.2,2-23.6,6
			c-7.4,3.9-13.9,9.4-19.5,16.3c-5.6,6.9-10,15.2-13.2,24.6c-3.2,9.5-4.8,19.8-4.8,30.9c0,7.5,1,14.2,3.1,20.1
			c2.1,5.9,4.9,10.8,8.6,14.9c3.7,4.1,8.1,7.2,13.2,9.3c5.1,2.1,10.8,3.2,16.8,3.2c7.2,0,14-1.7,20.4-5c6.4-3.3,12.2-8,17.3-14.1
			c0.3,2.7,1,5.2,2.3,7.5c1.3,2.3,2.9,4.3,5,6c2.1,1.7,4.5,3,7.3,4c2.8,1,5.8,1.5,9,1.5c9.5,0,18.3-1.9,26.4-5.6
			c8.1-3.8,15.1-9.2,21-16.3c5.9-7.1,10.5-15.8,13.8-26.1c3.3-10.3,5-22,5-35C283,141.9,280.7,130.1,276,119.2z M195.4,183.2
			c-1.3,5.5-3,10.4-5.4,14.7c-2.3,4.3-5,8-8.1,11.1c-3.1,3.1-6.5,5.5-10.3,7.1c-3.8,1.7-7.6,2.5-11.7,2.5
			c-15.4,0-23.1-9.7-23.1-29.1c0-8,1-15.5,3.2-22.5c2.1-7.1,4.9-13.2,8.4-18.5c3.5-5.3,7.5-9.5,12.1-12.5c4.6-3.1,9.4-4.6,14.4-4.6
			c6.8,0,12.6,1.3,17.3,3.8c4.7,2.5,8.7,5.5,11.8,9.1L195.4,183.2z"/>
	</g>
</g>
<g>
</g>
<g>
</g>
<g>
</g>
<g>
</g>
<g>
</g>
<g>
</g>
<g>
</g>
<g>
</g>
<g>
</g>
<g>
</g>
<g>
</g>
<g>
</g>
<g>
</g>
<g>
</g>
<g>
</g>
</svg>
