<?xml version="1.0" encoding="utf-8"?>
<!-- Generator: Adobe Illustrator 21.0.0, SVG Export Plug-In . SVG Version: 6.00 Build 0)  -->
<svg version="1.1" id="Capa_1" xmlns="http://www.w3.org/2000/svg" xmlns:xlink="http://www.w3.org/1999/xlink" x="0px" y="0px"
	 viewBox="0 0 353 353" style="enable-background:new 0 0 353 353;" xml:space="preserve">
<style type="text/css">
	.st0{fill:#95989A;}
	.st1{fill:#FFFFFF;}
</style>
<g>
	<circle class="st0" cx="176.5" cy="176.5" r="176.5"/>
	<path class="st1" d="M159.6,286.6c0,4.2,12.9,1,17.2-8.2c3.3-7.2,1.9-46.9,1.9-46.9l3.5-0.1c0,0,0.2,18.2,0.1,26.5
		c-0.1,8.6-0.7,19.5,4.5,24.6c3.4,3.4,14.5,9.3,14.5,3.9c0-3.1-6.1-5.7-6.1-14.2V233c4.8,0,4.1,12.9,4.1,12.9l0.4,23.9
		c0,0-1.1,8.7,9.6,12.3c3.8,1.3,11.8,1.6,12.2-0.5c0.4-2.2-9.7-5.4-9.8-12.1c-0.1-4.1,0.2-6.5,0.2-24.4s-2.4-24.5-10.9-29.7
		c26.3-2.7,42.5-9,50.4-26.1c0.6,0,3.2-8,2.9-8c1.8-6.5,2.7-14.1,2.9-23.1c0-24.5-12-33.2-14.3-37.3c3.4-18.6-0.6-27-2.4-29.9
		c-6.8-2.4-23.5,6.1-32.7,12c-14.9-4.3-46.5-3.9-58.3,1.1c-21.8-15.4-33.4-13-33.4-13s-7.5,13.2-2,32.4c-7.2,9-12.5,15.4-12.5,32.3
		c0,9.5,1.1,18,3.7,25.5c-0.3,0,3.4,8,3.6,8c8.2,14.7,24,23.8,50.7,26.3c-3.8,2.8-8.4,8.2-9,14.5c-4.8,3-14.4,4-21.9,1.7
		c-10.5-3.3-14.5-23.7-30.2-20.8c-3.4,0.6-2.7,2.8,0.2,4.7c4.8,3,9.3,6.9,12.8,15c2.7,6.2,8.3,17.4,26,17.4c7,0,12-0.8,12-0.8
		s0.1,15.9,0.1,22.1c0,7.1-9.8,9.1-9.8,12.6c0,1.4,3.2,1.5,5.8,1.5c5.1,0,15.9-4.2,15.9-11.6c0-5.9,0.1-25.7,0.1-29.2
		c0-7.6,4.1-10,4.1-10s0.5,40.4-1,45.8C162.8,284.7,159.6,283.7,159.6,286.6z"/>
</g>
<g>
</g>
<g>
</g>
<g>
</g>
<g>
</g>
<g>
</g>
<g>
</g>
<g>
</g>
<g>
</g>
<g>
</g>
<g>
</g>
<g>
</g>
<g>
</g>
<g>
</g>
<g>
</g>
<g>
</g>
</svg>
