<?xml version="1.0" encoding="utf-8"?>
<!-- Generator: Adobe Illustrator 21.0.0, SVG Export Plug-In . SVG Version: 6.00 Build 0)  -->
<svg version="1.1" id="Capa_1" xmlns="http://www.w3.org/2000/svg" xmlns:xlink="http://www.w3.org/1999/xlink" x="0px" y="0px"
	 viewBox="0 0 1169 1024.4" style="enable-background:new 0 0 1169 1024.4;" xml:space="preserve">
<style type="text/css">
	.st0{fill:#D9D9D9;}
	.st1{fill:#EBEBEB;}
	.st2{fill:#AFAFAF;}
	.st3{fill:#070606;}
	.st4{fill:none;stroke:#95989A;}
</style>
<g id="Group_46" transform="translate(-5294.5 2500.431)">
	<g id="Group_45" transform="translate(209 416)">
		<path id="Path_18" class="st0" d="M5544.7-2060.3h256.6c12.1,0,22,9.8,22,22l20,102.4c0,12.2-29.8,22-42,22h-256.6
			c-12.1,0-42-9.8-42-22l20-102.4C5522.7-2050.5,5532.5-2060.3,5544.7-2060.3z"/>
		<path id="Rectangle_23" class="st1" d="M5107.5-2881.1h1123.4c12.1,0,22,9.8,22,22v814.9c0,12.2-9.9,22-22,22H5107.5
			c-12.2,0-22-9.8-22-22v-814.9C5085.5-2871.2,5095.3-2881.1,5107.5-2881.1z"/>
		<path id="Path_22" class="st1" d="M5499.4-1932.8H5839c12.8,0,43.1,18.3,43.1,40.8h-425.9
			C5456.2-1914.5,5486.6-1932.8,5499.4-1932.8z"/>
		<g id="Group_44" transform="translate(553.962 797.621)">
			<g id="Group_43" transform="translate(27.203 0)">
				<path id="Path_19" class="st2" d="M5099.1-2907.6c6.8-2.8,7.8-8.2,7.8-8.2l0,0c0,0-4.3-1.8-11.1,1c-2.9,1.1-5.3,3.1-6.8,5.7
					c0.1,0.8,0.2,1.8,0.3,2.8C5092.6-2905.8,5096-2906.3,5099.1-2907.6z"/>
				<path id="Path_20" class="st2" d="M5089.3-2905.3c0-0.3,0-0.7,0-1c-0.1-1-0.2-1.9-0.3-2.8c-0.4-2.1-0.9-3.4-1.5-3.4
					c-1,0-1.7,3.1-1.9,7.3c0.7,0,1.4,0,2.1,0.1C5088.2-2905.2,5088.7-2905.3,5089.3-2905.3z"/>
			</g>
			<path id="Path_21" class="st2" d="M5143.9-2878.8c-1.1-21.1-17.7-27-27.4-26.5c-0.6,0-1.1,0.1-1.7,0.2c-0.7-0.1-1.4-0.1-2.1-0.1
				c-6.4,0-25,1.8-27.2,22.9c1.5-0.6,9.8-3.4,10.5,6.7c0.3,5.9-1.2,11.9-4.4,16.9c5.7,6.4,13.8,7.8,18.4,8.1
				c3.2,2.1,6.3,2.7,8.2,2.2C5123.4-2850,5145-2856.4,5143.9-2878.8z"/>
		</g>
		<g id="Rectangle_25" transform="translate(1.071)">
			<path class="st3" d="M5107.5-2916.4h1123.9c12.2,0,22,9.8,22,22v750.5l0,0H5085.5l0,0v-750.5
				C5085.5-2906.6,5095.3-2916.4,5107.5-2916.4z"/>
			<path class="st4" d="M5107.5-2915.9h1123.9c11.9,0,21.5,9.6,21.5,21.5v749.5c0,0.3-0.2,0.5-0.5,0.5H5086.5
				c-0.3,0-0.5-0.2-0.5-0.5v-749.5C5086-2906.3,5095.6-2915.9,5107.5-2915.9z"/>
		</g>
	</g>
</g>
</svg>
