<?xml version="1.0" encoding="utf-8"?>
<!-- Generator: Adobe Illustrator 21.0.0, SVG Export Plug-In . SVG Version: 6.00 Build 0)  -->
<svg version="1.1" id="Capa_1" xmlns="http://www.w3.org/2000/svg" xmlns:xlink="http://www.w3.org/1999/xlink" x="0px" y="0px"
	 viewBox="0 0 1169 979.4" style="enable-background:new 0 0 1169 979.4;" xml:space="preserve">
<style type="text/css">
	.st0{fill:#D9D9D9;}
	.st1{fill:#EBEBEB;}
	.st2{fill:#AFAFAF;}
	.st3{fill:#070606;}
</style>
<g id="Group_184" transform="translate(-6282.5 4143.431)">
	<path id="Path_92" class="st0" d="M6741.7-3332.3h256.6c12.1,0,22,9.8,22,22l20,102.4c0,12.1-29.8,22-42,22h-256.6
		c-12.1,0-42-9.9-42-22l20-102.4C6719.7-3322.5,6729.5-3332.3,6741.7-3332.3z"/>
	<path id="Rectangle_47" class="st1" d="M6304.5-4143.1h1123.4c12.1,0,22,9.8,22,22v814.9c0,12.2-9.9,22-22,22H6304.5
		c-12.2,0-22-9.8-22-22v-814.9C6282.5-4133.2,6292.3-4143.1,6304.5-4143.1z"/>
	<path id="Path_93" class="st1" d="M6696.4-3204.8H7036c12.8,0,43.1,18.3,43.1,40.8h-425.9
		C6653.2-3186.5,6683.6-3204.8,6696.4-3204.8z"/>
	<g id="Group_183" transform="translate(554.962 767.621)">
		<g id="Group_182" transform="translate(27.203 0)">
			<path id="Path_94" class="st2" d="M6296.1-4134.6c6.8-2.8,7.8-8.2,7.8-8.2v0c0,0-4.3-1.8-11.1,1c-2.9,1.1-5.3,3.1-6.8,5.7
				c0.1,0.8,0.2,1.8,0.3,2.8C6289.6-4132.8,6293-4133.3,6296.1-4134.6z"/>
			<path id="Path_95" class="st2" d="M6286.3-4132.3c0-0.3,0-0.7,0-1c-0.1-1-0.2-1.9-0.3-2.8c-0.4-2.1-0.9-3.4-1.5-3.4
				c-1,0-1.7,3.1-1.9,7.3c0.7,0,1.4,0,2.1,0.1C6285.2-4132.2,6285.7-4132.3,6286.3-4132.3z"/>
		</g>
		<path id="Path_96" class="st2" d="M6340.9-4105.8c-1.1-21.1-17.7-27-27.4-26.5c-0.6,0-1.1,0.1-1.7,0.2c-0.7-0.1-1.4-0.1-2.1-0.1
			c-6.4,0-25,1.8-27.2,22.9c1.5-0.6,9.8-3.4,10.5,6.7c0.3,5.9-1.2,11.9-4.4,16.9c5.7,6.4,13.8,7.8,18.4,8.1c3.2,2.1,6.3,2.7,8.2,2.2
			C6320.4-4077,6342-4083.4,6340.9-4105.8z"/>
	</g>
	<path id="Rectangle_48" class="st3" d="M6305.6-4143.4h1123.9c12.2,0,22,9.8,22,22v723.5l0,0H6283.6l0,0v-723.5
		C6283.6-4133.6,6293.4-4143.4,6305.6-4143.4z"/>
</g>
</svg>
